<svg width="40" height="40" viewBox="0 0 40 40" fill="none" xmlns="http://www.w3.org/2000/svg">
<rect x="0.6" y="0.6" width="38.8" height="38.8" rx="9.4" fill="#E8EBF7" stroke="#658AFC" stroke-width="1.2"/>
<path fill-rule="evenodd" clip-rule="evenodd" d="M21.9975 14.4456C22.1381 14.0877 22.5491 13.9089 22.9155 14.0463L28.5441 16.1574C28.72 16.2234 28.8619 16.355 28.9386 16.5232C29.0152 16.6914 29.0203 16.8825 28.9528 17.0544L26.7922 22.5541C26.6515 22.912 26.2406 23.0908 25.8742 22.9534C25.5079 22.816 25.3249 22.4144 25.4655 22.0565L27.0114 18.1215L25.982 18.5693C23.6579 19.5804 21.8877 21.3029 20.8186 23.3583C20.7155 23.5566 20.5214 23.6945 20.2967 23.7294C20.0719 23.7643 19.8436 23.6919 19.6827 23.5347L16.1053 20.0393L10.213 25.7967C9.93548 26.0678 9.48559 26.0678 9.20811 25.7967C8.93063 25.5255 8.93063 25.086 9.20811 24.8148L15.6029 18.5665C15.7362 18.4363 15.9169 18.3632 16.1053 18.3632C16.2938 18.3632 16.4745 18.4363 16.6078 18.5665L20.024 21.9045C21.2562 19.941 23.0885 18.3082 25.404 17.3009L26.4334 16.8531L22.4062 15.3426C22.0399 15.2052 21.8569 14.8036 21.9975 14.4456Z" fill="#658AFC"/>
<path d="M12 27.5L15.5 24" stroke="#B3C5FD" stroke-width="1.3" stroke-linecap="round"/>
</svg>
