<svg width="99" height="18" viewBox="0 0 99 18" fill="none" xmlns="http://www.w3.org/2000/svg">
<path d="M17.9361 9.18037C17.9361 8.91462 17.9117 8.60056 17.8873 8.23817H11.6161L14.2514 11.403C13.4706 13.529 11.5673 14.9543 9.00515 14.9543C5.44256 14.9543 3.31964 12.2485 3.31964 9.18037C3.31964 6.11219 5.44256 3.4064 9.00515 3.4064C10.7621 3.4064 12.2261 4.05869 13.2022 5.12168L15.6179 3.01986C13.983 1.3529 11.6649 0.362383 9.00515 0.362383C3.68566 0.265747 -0.0721531 4.44523 0.00105109 9.18037C-0.0721531 13.9155 3.68566 18.095 9.00515 17.9984C14.2514 18.095 17.9849 13.9155 17.9361 9.18037Z" fill="#141929"/>
<path d="M19.6121 2.48836C19.6121 3.57551 20.4662 4.39691 21.613 4.39691C22.7599 4.39691 23.6139 3.57551 23.6139 2.48836C23.6139 1.40121 22.7599 0.579813 21.613 0.579813C20.4662 0.579813 19.6121 1.40121 19.6121 2.48836ZM20.0757 6.11219V17.636H23.1503V6.11219H20.0757Z" fill="#141929"/>
<path d="M30.3476 2.29509H29.0787L24.7353 8.91462H27.273V17.636H30.3476V8.91462H33.959V6.11219H30.3476V2.29509Z" fill="#141929"/>
<path d="M35.9978 0.724765V17.636H39.2188V12.007H43.0498C46.5636 12.007 49.0526 9.73602 49.0526 6.32962C49.0526 2.92322 46.5392 0.724765 43.0498 0.724765H35.9978ZM45.7584 6.35378C45.7584 8.11738 44.5871 9.10789 42.4642 9.10789H39.2188V3.62383H42.4642C44.5871 3.62383 45.7584 4.61434 45.7584 6.35378Z" fill="#141929"/>
<path d="M58.8545 12.7076C58.8545 14.2537 57.9272 15.2684 56.3655 15.2684C54.8038 15.2684 53.8766 14.2537 53.8766 12.7076V6.11219H50.802V12.9733C50.802 16.0415 53.169 17.9742 56.3655 17.9742C59.5621 17.9742 61.929 16.0415 61.929 12.9733V6.11219H58.8545V12.7076Z" fill="#141929"/>
<path d="M64.6731 17.636H67.7476V0H64.6731V17.636Z" fill="#141929"/>
<path d="M70.6991 17.636H73.7736V0H70.6991V17.636Z" fill="#141929"/>
<path d="M87.9497 12.9492C87.9741 12.6834 88.0229 12.2002 88.0229 11.8378C88.0229 8.38313 85.7291 5.74981 82.0933 5.74981C78.4331 5.74981 76.0418 8.38313 76.0418 11.862C76.0418 15.365 78.4331 17.9984 82.0933 17.9984C84.5335 17.9984 86.632 16.9595 87.6813 15.0268L85.0459 13.7706C84.3627 14.7369 83.3378 15.2442 82.0933 15.2442C80.6293 15.2442 79.6044 14.3262 79.2384 12.9492H87.9497ZM79.3116 10.5333C79.702 9.27701 80.7269 8.4556 82.0933 8.4556C83.533 8.4556 84.4359 9.20453 84.8019 10.5333H79.3116Z" fill="#141929"/>
<path d="M90.2096 17.636H93.2842V10.3158C93.2842 9.15621 93.7723 8.52808 94.6263 8.52808C95.4803 8.52808 95.9928 9.08373 95.9684 9.95345H98.9941C99.0917 7.53757 97.9693 5.91892 95.7244 5.91892C94.5287 5.91892 93.7234 6.37794 93.2842 7.27182V6.11219H90.2096V17.636Z" fill="#141929"/>
</svg>
