<svg width="14" height="16" viewBox="0 0 14 16" fill="none" xmlns="http://www.w3.org/2000/svg">
<path fill-rule="evenodd" clip-rule="evenodd" d="M2.82219 4.03663C3.70635 3.77471 4.34813 2.99103 4.34813 2.06498C4.34813 0.924521 3.37477 0 2.17407 0C0.973363 0 0 0.924521 0 2.06498C0 2.99336 0.645016 3.77864 1.53261 4.0386C1.52782 4.06889 1.52534 4.09989 1.52534 4.13145V11.8751C1.52534 11.9045 1.52749 11.9334 1.53166 11.9617C0.644553 12.2219 0 13.007 0 13.935C0 15.0755 0.973363 16 2.17407 16C3.37477 16 4.34813 15.0755 4.34813 13.935C4.34813 13.0093 3.70682 12.2259 2.82316 11.9637C2.82752 11.9347 2.82978 11.9052 2.82978 11.8751V4.13145C2.82978 4.09921 2.82718 4.06755 2.82219 4.03663ZM3.26497 2.06407C3.26497 2.63429 2.77829 3.09655 2.17794 3.09655C1.57759 3.09655 1.09091 2.63429 1.09091 2.06407C1.09091 1.49384 1.57759 1.03158 2.17794 1.03158C2.77829 1.03158 3.26497 1.49384 3.26497 2.06407ZM2.17794 14.9665C2.77829 14.9665 3.26497 14.5042 3.26497 13.934C3.26497 13.3638 2.77829 12.9015 2.17794 12.9015C1.57759 12.9015 1.09091 13.3638 1.09091 13.934C1.09091 14.5042 1.57759 14.9665 2.17794 14.9665Z" fill="#658AFC"/>
<path fill-rule="evenodd" clip-rule="evenodd" d="M6.70674 2.39799C6.47679 2.61614 6.47679 2.96982 6.70674 3.18797L9.06198 5.42235C9.29192 5.6405 9.66474 5.6405 9.89468 5.42235C10.1246 5.20421 10.1246 4.85052 9.89468 4.63238L8.57239 3.37793C9.03499 3.39479 9.49539 3.41968 9.95345 3.45246C11.2209 3.54316 12.2204 4.49139 12.316 5.69382C12.3865 6.58 12.4224 7.47544 12.4224 8.37894C12.4224 9.28243 12.3865 10.1779 12.316 11.0641C12.2536 11.8492 11.8058 12.5259 11.1497 12.9263C10.7775 12.2959 10.0673 11.8699 9.2522 11.8699C8.05149 11.8699 7.07813 12.7944 7.07813 13.9349C7.07813 15.0754 8.05149 15.9999 9.2522 15.9999C10.408 15.9999 11.3531 15.1433 11.4222 14.062C12.5762 13.5206 13.3882 12.433 13.4903 11.1481C13.563 10.234 13.6 9.3105 13.6 8.37894C13.6 7.44738 13.563 6.5239 13.4903 5.60979C13.3509 3.85663 11.89 2.47067 10.042 2.33843C9.53719 2.3023 9.02965 2.27547 8.51959 2.25811L9.89468 0.953584C10.1246 0.735438 10.1246 0.381755 9.89468 0.163609C9.66474 -0.0545363 9.29192 -0.0545363 9.06198 0.163609L6.70674 2.39799ZM9.25607 12.9015C9.6001 12.9015 9.9068 13.0533 10.106 13.2902L10.0995 13.2911C10.2499 13.4682 10.3399 13.6935 10.3399 13.9387C10.3399 14.1054 10.2983 14.2628 10.2245 14.4022C10.0448 14.7372 9.679 14.9665 9.25607 14.9665C8.65572 14.9665 8.16904 14.5042 8.16904 13.934C8.16904 13.3638 8.65572 12.9015 9.25607 12.9015Z" fill="#658AFC"/>
</svg>
