<svg width="40" height="40" viewBox="0 0 40 40" fill="none" xmlns="http://www.w3.org/2000/svg">
<rect x="0.6" y="0.6" width="38.8" height="38.8" rx="9.4" fill="#E8EBF7" stroke="#658AFC" stroke-width="1.2"/>
<path d="M20.6911 18.8434L24.8368 19.3888C26.255 19.6071 27.346 20.807 27.346 22.2798V26.0435C27.346 27.6799 26.0369 28.989 24.455 28.989H18.0732C17.0367 28.989 16.1641 28.4981 15.6186 27.6253L12.7822 23.2617C12.2913 22.4981 12.4549 21.5162 13.164 21.0252L13.6003 20.6435C14.3639 20.098 15.4003 20.2071 15.9458 20.9707L16.8185 22.0071V14.316C16.8185 13.3887 17.5821 12.625 18.5095 12.625H19.0004C19.9277 12.625 20.6914 13.3886 20.6914 14.316V18.8434L20.6911 18.8434ZM24.7275 20.3161L20.5273 19.7161C20.091 19.6615 19.7637 19.3343 19.7637 18.8979V14.316C19.7637 13.8797 19.4365 13.5524 19.0001 13.5524H18.5092C18.0729 13.5524 17.7456 13.8797 17.7456 14.316V22.1709C17.7456 22.3892 17.6911 22.5527 17.5819 22.6618C17.2547 23.1527 16.5455 23.1527 16.2183 22.7164L15.2365 21.5163C14.9638 21.1891 14.5273 21.1345 14.2001 21.4072L13.7092 21.7344C13.4365 22.0071 13.3274 22.4436 13.5455 22.7708L16.3819 27.1345C16.7636 27.7345 17.3637 28.0617 18.0729 28.0617H24.4547C25.5457 28.0617 26.4184 27.1345 26.4184 26.0435V22.2798C26.4184 21.2434 25.7092 20.4253 24.7274 20.3162L24.7275 20.3161Z" fill="#658AFC" stroke="#658AFC" stroke-width="0.2"/>
<path d="M15.8344 13.0092C15.7253 13.2274 15.4526 13.3364 15.2344 13.1728C15.0161 13.0637 14.9071 12.7911 15.0707 12.5728C15.7799 11.2637 17.1435 10.5 18.6709 10.5C20.1437 10.5 21.5073 11.2636 22.2711 12.5728C22.3802 12.791 22.3257 13.0637 22.1074 13.1728C21.8892 13.3365 21.6165 13.2274 21.4528 13.0092C20.8528 12.0273 19.8164 11.4273 18.671 11.4273C17.5255 11.4273 16.4345 12.0273 15.8346 13.0092H15.8344Z" fill="#B3C5FD" stroke="#B3C5FD" stroke-width="0.2"/>
</svg>
