<svg width="40" height="40" viewBox="0 0 40 40" fill="none" xmlns="http://www.w3.org/2000/svg">
<rect x="0.6" y="0.6" width="38.8" height="38.8" rx="9.4" fill="#E8EBF7" stroke="#658AFC" stroke-width="1.2"/>
<path d="M19.5 13.5C19.5 12.9477 19.0506 12.4936 18.5026 12.5624C17.2738 12.7168 16.0928 13.1551 15.0554 13.8482C13.7398 14.7273 12.7145 15.9767 12.109 17.4385C11.5035 18.9003 11.345 20.5089 11.6537 22.0607C11.9624 23.6126 12.7243 25.038 13.8431 26.1569C14.962 27.2757 16.3874 28.0376 17.9393 28.3463C19.4911 28.655 21.0997 28.4965 22.5615 27.891C24.0233 27.2855 25.2727 26.2602 26.1518 24.9446C26.8449 23.9072 27.2832 22.7262 27.4376 21.4974C27.5064 20.9494 27.0523 20.5 26.5 20.5H21C20.1716 20.5 19.5 19.8284 19.5 19V13.5Z" stroke="#658AFC" stroke-width="1.2"/>
<path d="M22.5 11.5C22.5 10.9477 22.95 10.4927 23.4966 10.5713C24.0731 10.6542 24.6383 10.809 25.1788 11.0328C26.0281 11.3846 26.7997 11.9002 27.4497 12.5503C28.0998 13.2003 28.6154 13.9719 28.9672 14.8212C29.191 15.3617 29.3458 15.9269 29.4287 16.5034C29.5073 17.05 29.0523 17.5 28.5 17.5L23.5 17.5C22.9477 17.5 22.5 17.0523 22.5 16.5V11.5Z" stroke="#B3C5FD" stroke-width="1.2"/>
</svg>
