<svg width="40" height="40" viewBox="0 0 40 40" fill="none" xmlns="http://www.w3.org/2000/svg">
<rect x="0.6" y="0.6" width="38.8" height="38.8" rx="9.4" fill="#E8EBF7" stroke="#658AFC" stroke-width="1.2"/>
<path d="M15.0146 24.1495C15.1129 22.7726 16.3629 21.769 17.7391 21.8778C18.4155 21.9313 19.1515 21.971 19.8467 21.971C20.6214 21.971 21.4866 21.9217 22.2742 21.859C23.6454 21.7497 24.8796 22.7559 24.9776 24.128V24.128C25.0961 25.7867 23.7824 27.1977 22.1194 27.1977H19.8467H17.8528C16.2015 27.1977 14.8969 25.7966 15.0146 24.1495V24.1495Z" stroke="#658AFC" stroke-width="1.2"/>
<path d="M17.2031 16.3977C17.2031 14.8513 18.4567 13.5977 20.0031 13.5977V13.5977C21.5495 13.5977 22.8031 14.8513 22.8031 16.3977V16.7977C22.8031 18.1231 21.7286 19.1977 20.4031 19.1977V19.1977H19.6031V19.1977C18.2776 19.1977 17.2031 18.1231 17.2031 16.7977V16.3977Z" stroke="#658AFC" stroke-width="1.2"/>
<path d="M26.7969 21.5977C26.7969 21.5977 27.9969 22.0918 27.9969 23.5977C27.9969 25.1036 26.7969 25.5977 26.7969 25.5977" stroke="#B3C5FD" stroke-width="1.2" stroke-linecap="round" stroke-linejoin="round"/>
<path d="M13.2031 21.5977C13.2031 21.5977 12.0031 21.9977 12.0031 23.5977C12.0031 25.1977 13.2031 25.5977 13.2031 25.5977" stroke="#B3C5FD" stroke-width="1.2" stroke-linecap="round" stroke-linejoin="round"/>
<path d="M24.7969 13.9961C24.7969 13.9961 26.3969 14.3277 26.3969 15.9961C26.3969 17.6645 24.7969 17.9961 24.7969 17.9961" stroke="#B3C5FD" stroke-width="1.2" stroke-linecap="round" stroke-linejoin="round"/>
<path d="M15.2031 13.9961C15.2031 13.9961 13.6031 14.2635 13.6031 15.9961C13.6031 17.7287 15.2031 17.9961 15.2031 17.9961" stroke="#B3C5FD" stroke-width="1.2" stroke-linecap="round" stroke-linejoin="round"/>
</svg>
