<svg width="40" height="40" viewBox="0 0 40 40" fill="none" xmlns="http://www.w3.org/2000/svg">
<rect x="0.6" y="0.6" width="38.8" height="38.8" rx="9.4" fill="#E8EBF7" stroke="#658AFC" stroke-width="1.2"/>
<path fill-rule="evenodd" clip-rule="evenodd" d="M20.3008 10.4802C20.1139 10.3712 19.8829 10.3712 19.6961 10.4802L17.4461 11.7927C17.1599 11.9596 17.0632 12.327 17.2302 12.6133C17.3971 12.8995 17.7645 12.9962 18.0508 12.8292L19.9984 11.6931L21.9461 12.8292C22.2323 12.9962 22.5997 12.8995 22.7667 12.6133C22.9337 12.327 22.837 11.9596 22.5508 11.7927L20.3008 10.4802ZM27.0508 14.4177C26.7645 14.2507 26.3971 14.3474 26.2302 14.6336C26.0632 14.9198 26.1599 15.2872 26.4461 15.4542L27.8077 16.2484L26.4461 17.0427C26.1599 17.2096 26.0632 17.577 26.2302 17.8633C26.3971 18.1495 26.7645 18.2462 27.0508 18.0792L28.3984 17.2931V18.4984C28.3984 18.8298 28.6671 19.0984 28.9984 19.0984C29.3298 19.0984 29.5984 18.8298 29.5984 18.4984V16.2484C29.5984 16.035 29.4851 15.8377 29.3008 15.7302L27.0508 14.4177ZM29.5984 22.9984C29.5984 22.6671 29.3298 22.3984 28.9984 22.3984C28.6671 22.3984 28.3984 22.6671 28.3984 22.9984V24.9038L26.4461 26.0427C26.1599 26.2096 26.0632 26.577 26.2302 26.8633C26.3971 27.1495 26.7645 27.2462 27.0508 27.0792L29.3008 25.7667C29.4851 25.6592 29.5984 25.4618 29.5984 25.2484V22.9984ZM13.5508 15.4542C13.837 15.2872 13.9337 14.9198 13.7667 14.6336C13.5997 14.3474 13.2323 14.2507 12.9461 14.4177L10.6961 15.7302C10.5118 15.8377 10.3984 16.035 10.3984 16.2484V18.4984C10.3984 18.8298 10.6671 19.0984 10.9984 19.0984C11.3298 19.0984 11.5984 18.8298 11.5984 18.4984V17.2931L12.9461 18.0792C13.2323 18.2462 13.5997 18.1495 13.7667 17.8633C13.9337 17.577 13.837 17.2096 13.5508 17.0427L12.1892 16.2484L13.5508 15.4542ZM18.0508 19.6677C17.7645 19.5007 17.3971 19.5974 17.2302 19.8836C17.0632 20.1698 17.1599 20.5372 17.4461 20.7042L19.3984 21.8431V23.7484C19.3984 24.0798 19.6671 24.3484 19.9984 24.3484C20.3298 24.3484 20.5984 24.0798 20.5984 23.7484V21.8431L22.5508 20.7042C22.837 20.5372 22.9337 20.1698 22.7667 19.8836C22.5997 19.5974 22.2323 19.5007 21.9461 19.6677L19.9984 20.8038L18.0508 19.6677ZM11.5984 22.9984C11.5984 22.6671 11.3298 22.3984 10.9984 22.3984C10.6671 22.3984 10.3984 22.6671 10.3984 22.9984V25.2484C10.3984 25.4618 10.5118 25.6592 10.6961 25.7667L12.9461 27.0792C13.2323 27.2462 13.5997 27.1495 13.7667 26.8633C13.9337 26.577 13.837 26.2096 13.5508 26.0427L11.5984 24.9038V22.9984ZM20.5984 28.2484C20.5984 27.9171 20.3298 27.6484 19.9984 27.6484C19.6671 27.6484 19.3984 27.9171 19.3984 28.2484V29.4538L18.0508 28.6677C17.7645 28.5007 17.3971 28.5974 17.2302 28.8836C17.0632 29.1698 17.1599 29.5372 17.4461 29.7042L19.6961 31.0167C19.8829 31.1257 20.1139 31.1257 20.3008 31.0167L22.5508 29.7042C22.837 29.5372 22.9337 29.1698 22.7667 28.8836C22.5997 28.5974 22.2323 28.5007 21.9461 28.6677L20.5984 29.4538V28.2484Z" fill="#658AFC"/>
</svg>
